<svg width="139" height="137" viewBox="0 0 139 137" fill="none" xmlns="http://www.w3.org/2000/svg">
<path fill-rule="evenodd" clip-rule="evenodd" d="M67.0897 0.0660231C66.7068 0.110451 65.5432 0.245351 64.5039 0.365509C54.2736 1.54811 44.8659 5.48926 37.1053 11.8435C34.7619 13.7624 30.8581 17.7904 29.0631 20.1414C22.862 28.2641 19.1465 37.8743 17.8594 49.1206C17.4777 52.4544 17.4216 59.7476 17.7522 63.0549C19.1338 76.8816 24.3879 88.6474 33.1752 97.593C40.9887 105.548 51.0359 110.593 62.8131 112.476C66.6215 113.085 76.3992 113.138 80.1185 112.57C97.2502 109.952 110.655 100.755 118.788 86.0371C125.348 74.1677 127.545 58.2442 124.659 43.487C122.549 32.6944 117.576 22.9891 110.38 15.6189C107.536 12.706 105.707 11.1739 102.384 8.92094C95.8618 4.49892 88.5908 1.7654 79.8201 0.438413C77.8348 0.137917 68.7532 -0.127643 67.0897 0.0660231ZM74.9468 26.2206C85.4056 27.5153 93.8601 34.8239 97.3148 45.5569C98.5917 49.5239 98.7989 51.046 98.8031 56.4917C98.8067 60.883 98.7568 61.6726 98.3593 63.5139C97.679 66.6665 97.0067 68.6718 95.7373 71.3347C92.0106 79.151 85.4171 84.4743 77.2343 86.2726C74.974 86.7694 70.2009 86.8897 67.7859 86.5109C53.9186 84.3353 44.6399 72.3517 44.6166 56.5874C44.6031 47.4437 47.6208 39.4765 53.2584 33.7726C59.0063 27.9565 66.865 25.2202 74.9468 26.2206Z" fill="#F6E2BE"/>
<path d="M0.00393556 73.097C-0.0280639 72.8028 0.0128569 72.7919 5.16244 71.7182C8.01735 71.123 10.5006 70.6308 10.6809 70.6246C10.8946 70.6172 11.0298 70.6884 11.0698 70.8295C11.2184 71.3542 11.5287 73.1104 11.4814 73.1583C11.4525 73.1875 7.10488 74.0868 7.10488 74.0868C7.10488 74.0868 2.75894 74.9838 2.73219 75.0099C2.70544 75.0358 2.88413 76.0731 3.12913 77.3147C3.37426 78.5563 3.5748 79.6585 3.5748 79.764C3.57468 79.9069 3.30354 80.0088 2.51345 80.1629C1.92976 80.2767 1.44049 80.3572 1.4262 80.3417C1.38761 80.3001 0.0415532 73.4435 0.00393556 73.097Z" fill="#F6E2BE"/>
<path d="M3.84949 83.2322C4.60526 82.9535 6.95478 82.0891 9.07077 81.3113C11.1868 80.5334 12.9511 79.8934 12.9915 79.8891C13.0692 79.8806 15.5505 86.7747 15.5459 86.9864C15.5422 87.1581 13.5887 87.8405 13.4737 87.7101C13.4223 87.6519 13.0331 86.6151 12.6087 85.4059C12.1718 84.1616 11.78 83.2284 11.7057 83.2554C11.6335 83.2816 11.2035 83.4362 10.7501 83.5989C10.2968 83.7617 9.92571 83.9338 9.92571 83.9815C9.92571 84.0291 10.2269 84.9157 10.5951 85.9517C10.9634 86.9878 11.2516 87.8485 11.2359 87.8645C11.1789 87.9221 9.15003 88.6522 9.12866 88.6228C9.11144 88.5992 8.01784 85.5254 7.78908 84.8579C7.72728 84.6771 5.52885 85.4221 5.52885 85.6238C5.52885 85.6924 5.89256 86.7664 6.33713 88.0107C6.78171 89.255 7.11978 90.2989 7.08852 90.3306C7.05725 90.3622 6.58226 90.554 6.0329 90.7569L5.0342 91.1256L4.93075 90.8479C4.33815 89.2558 2.47547 83.9553 2.47547 83.8613C2.47547 83.7938 3.09384 83.5107 3.84949 83.2322Z" fill="#F6E2BE"/>
<path d="M128.039 91.6094C126.234 89.784 127.168 85.9672 129.792 84.4448C130.133 84.2468 130.425 84.0843 130.441 84.0836C130.457 84.083 130.697 84.5391 130.975 85.0971C131.351 85.8547 131.437 86.1247 131.312 86.163C131.22 86.1912 130.837 86.5309 130.46 86.9178C129.389 88.0171 129.115 89.2382 129.849 89.6356C129.982 89.7078 130.177 89.7667 130.283 89.7667C130.389 89.7667 131.194 89.0946 132.072 88.2731C132.951 87.4516 133.899 86.6744 134.178 86.5459C134.907 86.2109 135.99 86.2325 136.763 86.5975C139.178 87.7376 139.294 91.324 136.998 93.8334C136.323 94.571 135.3 95.3284 134.981 95.3263C134.744 95.3247 133.787 93.2006 133.992 93.1314C134.076 93.1034 134.412 92.8654 134.741 92.6027C136.062 91.5459 136.706 90.0178 136.091 89.396C135.576 88.8743 135.231 89.0364 133.572 90.5823C131.807 92.2265 131.36 92.4798 130.229 92.4798C129.296 92.4798 128.642 92.22 128.039 91.6094Z" fill="#F6E2BE"/>
<path d="M121.102 99.3034C121.117 99.2134 122.037 97.6723 123.145 95.8788C124.253 94.0853 125.191 92.6297 125.229 92.6442C125.486 92.7438 127.053 93.7958 127.053 93.8689C127.053 93.919 126.779 94.3979 126.443 94.9331C126.107 95.4684 125.832 95.9568 125.833 96.0184C125.833 96.1231 130.936 99.4323 131.331 99.5847C131.457 99.6333 131.706 99.339 132.162 98.6029C132.52 98.0247 132.845 97.5517 132.885 97.5517C132.989 97.5517 134.748 98.6713 134.748 98.7379C134.748 98.824 130.831 105.129 130.668 105.306C130.555 105.428 130.329 105.335 129.587 104.861L128.648 104.262L129.324 103.174C129.873 102.288 129.969 102.057 129.839 101.934C129.669 101.773 124.395 98.4167 124.312 98.4167C124.285 98.4167 123.977 98.8893 123.626 99.467C123.276 100.045 122.935 100.517 122.869 100.517C122.615 100.517 121.076 99.4595 121.102 99.3034Z" fill="#F6E2BE"/>
<path d="M10.3252 101.444C10.3097 101.376 12.3433 99.8906 14.8442 98.143C17.3451 96.3952 19.4462 94.964 19.5133 94.9624C19.5805 94.9608 19.9789 95.4629 20.3986 96.0781L21.1618 97.1967L19.918 98.7025C19.2338 99.5308 18.4594 100.449 18.1972 100.743C17.9348 101.037 17.7442 101.302 17.7736 101.332C17.8029 101.361 18.2064 101.241 18.6701 101.064C19.8107 100.629 22.6352 99.6524 22.7516 99.6524C22.922 99.6524 24.3677 101.896 24.26 101.993C24.0026 102.226 15.2375 108.322 15.1314 108.342C15.0142 108.364 13.834 106.739 13.834 106.555C13.834 106.421 17.3006 104.043 18.866 103.102C19.5848 102.671 20.1566 102.301 20.137 102.281C20.1172 102.261 19.8588 102.332 19.5629 102.438C19.1242 102.595 17.9745 102.959 15.6449 103.678C15.5035 103.721 15.3235 103.568 15.0592 103.18L14.6776 102.619L15.4362 101.599C15.8535 101.038 16.6113 100.082 17.1201 99.4736L18.0453 98.3679L16.7311 99.4535C15.5001 100.47 11.6871 103.239 11.5257 103.233C11.4412 103.23 10.3672 101.63 10.3252 101.444Z" fill="#F6E2BE"/>
<path d="M116.298 105.073L117.297 103.898C118.094 102.961 118.348 102.736 118.547 102.789C119.102 102.936 129.123 107.383 129.126 107.484C129.128 107.544 128.74 108.056 128.265 108.623L127.4 109.654L126.172 109.03C125.166 108.52 124.917 108.436 124.797 108.571C123.901 109.573 122.901 110.8 122.901 110.897C122.901 110.963 123.235 111.494 123.644 112.076L124.386 113.133L123.964 113.653C123.732 113.938 123.324 114.419 123.059 114.721L122.575 115.269L119.437 110.171L116.298 105.073Z" fill="#F6E2BE"/>
<path d="M16.4366 110.119C16.4518 110.064 18.799 108.86 21.6528 107.441C24.5066 106.023 26.8705 104.858 26.906 104.853C26.9681 104.843 28.0608 105.965 28.779 106.777L29.1238 107.166L26.2247 112.378L23.3255 117.59L22.4795 116.746C22.0142 116.282 21.579 115.802 21.5126 115.68C21.4168 115.504 21.5347 115.229 22.0812 114.352C22.4605 113.744 22.7524 113.197 22.7298 113.137C22.7073 113.077 22.2167 112.527 21.6395 111.915L20.5901 110.802L19.38 111.475L18.1698 112.149L17.2895 111.183C16.8053 110.652 16.4216 110.173 16.4366 110.119Z" fill="#F6E2BE"/>
<path d="M109.283 111.775C110.859 110.405 111.93 109.672 112.746 109.403C112.924 109.345 113.41 109.317 113.827 109.341C115.096 109.415 116.133 110.216 116.764 111.611C117.019 112.174 117.056 112.408 117.01 113.161C116.98 113.649 116.919 114.132 116.875 114.234C116.811 114.381 117.282 114.596 119.174 115.284C120.483 115.76 121.555 116.18 121.556 116.217C121.557 116.255 121.064 116.714 120.462 117.237L119.367 118.19L117.806 117.558C116.947 117.211 115.997 116.827 115.694 116.706L115.143 116.485L114.683 116.875L114.224 117.266L115.506 118.799C116.474 119.957 116.756 120.371 116.658 120.491C116.435 120.763 114.879 122.019 114.765 122.019C114.604 122.019 107.573 113.618 107.573 113.426C107.573 113.335 108.342 112.592 109.283 111.775Z" fill="#F6E2BE"/>
<path d="M25.1721 119.003C25.2271 118.928 26.7716 116.908 28.6043 114.512C30.4371 112.116 31.986 110.156 32.0465 110.156C32.2353 110.156 35.8653 113.064 36.296 113.56C36.9365 114.299 37.2818 115.164 37.2801 116.026C37.2783 116.954 36.9923 117.615 36.2408 118.428C35.4636 119.269 34.8122 119.569 33.7676 119.569H32.9376L32.5847 122.091C32.3906 123.479 32.1923 124.614 32.1441 124.614C32.0957 124.614 31.5527 124.22 30.9374 123.739C29.9279 122.95 29.8252 122.832 29.8864 122.534C30.0457 121.758 30.5663 118.611 30.564 118.438C30.5625 118.335 30.3564 118.104 30.106 117.925L29.6505 117.6L28.4368 119.184C27.7631 120.064 27.1652 120.734 27.0933 120.691C27.022 120.648 26.5381 120.281 26.0179 119.876C25.4176 119.407 25.1087 119.089 25.1721 119.003Z" fill="#F6E2BE"/>
<path d="M99.8172 118.329C99.8172 118.281 101.231 117.368 102.96 116.3C104.688 115.231 106.139 114.357 106.184 114.357C106.228 114.357 106.526 114.78 106.844 115.297C107.306 116.048 107.389 116.259 107.254 116.347C107.16 116.408 106.217 116.993 105.158 117.649C103.317 118.787 103.238 118.852 103.395 119.101C103.485 119.245 103.765 119.71 104.017 120.134C104.27 120.559 104.494 120.907 104.516 120.907C104.539 120.907 105.284 120.454 106.172 119.902C107.061 119.349 107.871 118.89 107.972 118.882C108.123 118.87 109.206 120.42 109.218 120.664C109.22 120.701 108.428 121.22 107.459 121.818L105.696 122.905L106.808 124.753C107.756 126.328 107.895 126.625 107.747 126.763C107.528 126.966 105.66 128.099 105.626 128.049C105.319 127.596 99.8172 118.39 99.8172 118.329Z" fill="#F6E2BE"/>
<path d="M37.1709 120.237C38.0243 118.946 39.1072 118.104 40.3473 117.766C42.6731 117.134 45.2508 118.25 46.2539 120.325C46.4407 120.711 46.5641 121.105 46.528 121.2C46.4507 121.404 44.5685 122.072 44.5165 121.914C44.4968 121.854 44.3242 121.555 44.133 121.25C43.7307 120.609 42.7531 120.041 42.0539 120.043C40.6202 120.047 39.005 121.803 38.6115 123.786C38.3912 124.896 38.8163 125.935 39.7446 126.555C40.2017 126.86 40.3696 126.899 41.2169 126.894L42.1732 126.888L42.3017 127.388L42.5495 128.355C42.6152 128.611 42.6393 128.869 42.603 128.929C42.5667 128.988 42.1772 129.1 41.7375 129.178C39.0904 129.644 36.4079 127.69 35.9367 124.953C35.6831 123.479 36.1122 121.838 37.1709 120.237Z" fill="#F6E2BE"/>
<path d="M44.4586 131.151C44.4804 131.018 47.6379 121.924 48.0948 120.677C48.1285 120.586 48.2244 120.535 48.3077 120.565C48.3911 120.595 48.9193 120.781 49.4814 120.979C50.0436 121.177 50.5298 121.407 50.5618 121.49C50.5939 121.573 50.3112 122.512 49.9335 123.577C49.556 124.642 49.2622 125.524 49.2807 125.536C49.5228 125.698 51.8956 126.438 51.9599 126.372C52.008 126.322 52.3262 125.476 52.6669 124.49C53.0077 123.505 53.3106 122.632 53.3401 122.55C53.3786 122.443 53.6803 122.5 54.4075 122.753C55.779 123.229 55.8485 123.261 55.8485 123.417C55.8485 123.627 52.2826 133.804 52.1603 133.942C52.0902 134.022 51.6343 133.917 50.8664 133.646C50.2143 133.415 49.6672 133.216 49.6506 133.204C49.6341 133.192 49.9708 132.186 50.3989 130.968L51.1771 128.753L49.9404 128.297C49.2602 128.046 48.645 127.838 48.5733 127.834C48.5016 127.83 48.1217 128.758 47.729 129.896C47.3363 131.035 46.9718 132.016 46.9189 132.078C46.7672 132.253 44.4225 131.37 44.4586 131.151Z" fill="#F6E2BE"/>
<path d="M60.3021 122.413C60.3479 122.366 61.082 121.928 61.9336 121.44C62.7852 120.951 63.5315 120.565 63.5918 120.581C63.7608 120.626 64.66 122.288 64.6003 122.445C64.559 122.555 62.4405 123.52 61.3276 123.937C61.1789 123.993 61.0111 123.818 60.6733 123.255C60.4235 122.839 60.2564 122.46 60.3021 122.413Z" fill="#F6E2BE"/>
<path d="M88.982 122.807C89.0236 122.765 89.4862 122.604 90.01 122.449C91.3762 122.046 91.3545 122.041 91.566 122.791C93.2389 128.722 93.383 129.343 93.3941 130.669C93.4068 132.173 93.2312 132.644 92.3623 133.439C91.2332 134.471 89.1988 134.905 87.7824 134.417C87.028 134.157 86.1679 133.304 85.7443 132.396C85.4577 131.782 83.3845 124.391 83.4742 124.303C83.5774 124.202 85.9242 123.615 85.9837 123.675C86.0214 123.713 86.457 125.233 86.9514 127.052C88.0925 131.251 88.1529 131.43 88.5535 131.805C89.0082 132.229 89.2606 132.299 89.8063 132.15C90.4589 131.973 90.9013 131.408 90.9013 130.752C90.9013 130.468 90.4525 128.582 89.9037 126.56C89.3551 124.538 88.9403 122.849 88.982 122.807Z" fill="#F6E2BE"/>
<path d="M55.8815 134.902C55.8305 134.768 57.5997 124.334 57.7487 123.89C57.7836 123.786 57.9091 123.748 58.0786 123.789C58.2292 123.826 59.8363 124.118 61.65 124.439C63.4637 124.76 64.9971 125.067 65.0575 125.121C65.1682 125.22 64.9237 127.065 64.7776 127.234C64.7362 127.282 63.6583 127.133 62.3823 126.904C61.1062 126.676 60.0473 126.503 60.0292 126.521C59.9614 126.59 59.6336 128.484 59.6811 128.533C59.7085 128.56 60.5902 128.739 61.6407 128.929C62.6912 129.12 63.5808 129.306 63.6177 129.344C63.6943 129.421 63.4135 131.222 63.2945 131.417C63.2421 131.503 62.6529 131.444 61.5171 131.239C60.5825 131.07 59.6836 130.915 59.5193 130.893C59.2329 130.856 59.2121 130.902 59.012 132.028C58.8972 132.674 58.812 133.212 58.8228 133.223C58.8335 133.235 59.9366 133.443 61.2743 133.687C62.6118 133.93 63.7191 134.143 63.7349 134.16C63.7746 134.202 63.4149 136.277 63.3577 136.335C63.2469 136.447 55.9364 135.046 55.8815 134.902Z" fill="#F6E2BE"/>
<path d="M75.7368 125.239C76.7217 125.154 77.5825 125.067 77.6497 125.045C77.7169 125.024 78.0741 125.035 78.4436 125.07C81.5595 125.362 83.0777 127.321 83.0829 131.057C83.0866 133.787 82.037 135.438 79.8426 136.155C79.3382 136.319 75.2903 136.862 75.1726 136.781C75.1538 136.768 74.8939 134.372 74.5952 131.458C74.2964 128.543 74.0282 125.986 73.9991 125.776L73.9461 125.393L75.7368 125.239Z" fill="#F6E2BE"/>
<path class="logo-bg-color" d="M76.1133 126.996L77.4376 126.845C79.0837 126.657 80.5705 127.84 80.7583 129.486L80.9157 130.865C81.1035 132.512 79.9212 133.998 78.2751 134.186L76.9508 134.337L76.1133 126.996Z" fill="#ffffff"/>
<path class="logo-bg-color" d="M33.0391 113.133L34.695 114.504C35.4229 115.107 35.5245 116.185 34.922 116.913C34.3194 117.641 33.2409 117.743 32.513 117.14L30.8571 115.769L33.0391 113.133Z" fill="#ffffff"/>
<path class="logo-bg-color" d="M111.074 113.589L112.704 112.187C113.42 111.571 114.501 111.652 115.117 112.369C115.733 113.085 115.652 114.165 114.935 114.781L113.306 116.183L111.074 113.589Z" fill="#ffffff"/>
<path class="logo-bg-color" d="M26.3792 107.698L25.0409 111.518L22.6318 109.229L26.3792 107.698Z" fill="#ffffff"/>
<path class="logo-bg-color" d="M119.533 105.325L123.409 106.495L121.227 109.002L119.533 105.325Z" fill="#ffffff"/>
</svg>

